<svg width="30" height="32" viewBox="0 0 30 32" fill="none" xmlns="http://www.w3.org/2000/svg">
<path d="M27.6806 0.149765C27.8164 0.239354 27.9285 0.364456 28.0063 0.513211C28.0841 0.661966 28.1249 0.829444 28.125 0.999765V30.9998C28.125 31.265 28.0262 31.5193 27.8504 31.7069C27.6746 31.8944 27.4361 31.9998 27.1875 31.9998H21.5625C21.3139 31.9998 21.0754 31.8944 20.8996 31.7069C20.7238 31.5193 20.625 31.265 20.625 30.9998V27.9998H18.75V30.9998C18.75 31.265 18.6512 31.5193 18.4754 31.7069C18.2996 31.8944 18.0611 31.9998 17.8125 31.9998H0.9375C0.68886 31.9998 0.450403 31.8944 0.274587 31.7069C0.0987721 31.5193 0 31.265 0 30.9998V19.9998C0.000149338 19.79 0.0621527 19.5855 0.177234 19.4154C0.292316 19.2453 0.454646 19.1181 0.64125 19.0518L11.25 15.2798V8.99976C11.25 8.81421 11.2984 8.63231 11.3898 8.47443C11.4812 8.31654 11.612 8.18889 11.7675 8.10576L26.7675 0.105765C26.9106 0.0293765 27.0696 -0.00668281 27.2294 0.00101896C27.3893 0.00872073 27.5446 0.0599273 27.6806 0.149765ZM11.25 17.3878L1.875 20.7198V29.9998H11.25V17.3878ZM13.125 29.9998H16.875V26.9998C16.875 26.7345 16.9738 26.4802 17.1496 26.2927C17.3254 26.1051 17.5639 25.9998 17.8125 25.9998H21.5625C21.8111 25.9998 22.0496 26.1051 22.2254 26.2927C22.4012 26.4802 22.5 26.7345 22.5 26.9998V29.9998H26.25V2.61776L13.125 9.61776V29.9998Z" fill="#4224FF"/>
<path d="M3.75 22H5.625V24H3.75V22ZM7.5 22H9.375V24H7.5V22ZM3.75 26H5.625V28H3.75V26ZM7.5 26H9.375V28H7.5V26ZM15 18H16.875V20H15V18ZM18.75 18H20.625V20H18.75V18ZM15 22H16.875V24H15V22ZM18.75 22H20.625V24H18.75V22ZM22.5 18H24.375V20H22.5V18ZM22.5 22H24.375V24H22.5V22ZM15 14H16.875V16H15V14ZM18.75 14H20.625V16H18.75V14ZM22.5 14H24.375V16H22.5V14ZM15 10H16.875V12H15V10ZM18.75 10H20.625V12H18.75V10ZM22.5 10H24.375V12H22.5V10ZM22.5 6H24.375V8H22.5V6Z" fill="#4224FF"/>
</svg>
