<svg width="22" height="22" viewBox="0 0 22 22" fill="none" xmlns="http://www.w3.org/2000/svg">
<g clip-path="url(#clip0_24_42)">
<path d="M11 20.625C8.44729 20.625 5.99913 19.6109 4.1941 17.8059C2.38906 16.0009 1.375 13.5527 1.375 11C1.375 8.44729 2.38906 5.99913 4.1941 4.1941C5.99913 2.38906 8.44729 1.375 11 1.375C13.5527 1.375 16.0009 2.38906 17.8059 4.1941C19.6109 5.99913 20.625 8.44729 20.625 11C20.625 13.5527 19.6109 16.0009 17.8059 17.8059C16.0009 19.6109 13.5527 20.625 11 20.625ZM11 22C13.9174 22 16.7153 20.8411 18.7782 18.7782C20.8411 16.7153 22 13.9174 22 11C22 8.08262 20.8411 5.28473 18.7782 3.22183C16.7153 1.15893 13.9174 0 11 0C8.08262 0 5.28473 1.15893 3.22183 3.22183C1.15893 5.28473 0 8.08262 0 11C0 13.9174 1.15893 16.7153 3.22183 18.7782C5.28473 20.8411 8.08262 22 11 22Z" fill="#6224FF"/>
<path d="M15.0837 6.83377L15.0562 6.86402L10.2809 12.9484L7.40298 10.0691C7.20749 9.88698 6.94892 9.78782 6.68176 9.79253C6.41459 9.79724 6.15969 9.90547 5.97075 10.0944C5.7818 10.2834 5.67358 10.5383 5.66886 10.8054C5.66415 11.0726 5.76332 11.3312 5.94548 11.5266L9.58373 15.1663C9.68174 15.2641 9.79845 15.3412 9.92691 15.3929C10.0554 15.4447 10.1929 15.47 10.3314 15.4675C10.4698 15.4649 10.6064 15.4345 10.7328 15.378C10.8593 15.3215 10.973 15.2402 11.0674 15.1388L16.5564 8.27752C16.7433 8.08135 16.8454 7.8195 16.8408 7.54859C16.8362 7.27767 16.7252 7.01946 16.5317 6.82977C16.3382 6.64009 16.0778 6.53417 15.8069 6.53492C15.5359 6.53566 15.2762 6.64302 15.0837 6.83377Z" fill="#6224FF"/>
</g>
<defs>
<clipPath id="clip0_24_42">
<rect width="22" height="22" fill="white"/>
</clipPath>
</defs>
</svg>
