<svg width="25" height="25" viewBox="0 0 25 25" fill="none" xmlns="http://www.w3.org/2000/svg">
<g clip-path="url(#clip0_36_241)">
<path d="M18.9778 0.228118C19.0504 0.155363 19.1366 0.0976395 19.2315 0.0582544C19.3264 0.0188693 19.4282 -0.00140381 19.5309 -0.00140381C19.6337 -0.00140381 19.7355 0.0188693 19.8304 0.0582544C19.9253 0.0976395 20.0115 0.155363 20.0841 0.228118L24.7716 4.91562C24.8443 4.98819 24.9021 5.0744 24.9414 5.16932C24.9808 5.26423 25.0011 5.36598 25.0011 5.46874C25.0011 5.5715 24.9808 5.67326 24.9414 5.76817C24.9021 5.86309 24.8443 5.9493 24.7716 6.02187L9.14657 21.6469C9.0716 21.7213 8.9823 21.7798 8.88407 21.8187L1.07157 24.9437C0.929597 25.0006 0.774065 25.0145 0.624259 24.9838C0.474452 24.953 0.336958 24.879 0.228823 24.7709C0.120688 24.6627 0.0466669 24.5252 0.0159365 24.3754C-0.0147939 24.2256 -0.000882178 24.0701 0.055947 23.9281L3.18095 16.1156C3.2199 16.0174 3.27837 15.9281 3.35282 15.8531L18.9778 0.228118ZM17.5106 3.90624L21.0934 7.48906L23.1138 5.46874L19.5309 1.88593L17.5106 3.90624ZM19.9888 8.59374L16.4059 5.01093L6.2497 15.1672V15.625H7.03095C7.23815 15.625 7.43686 15.7073 7.58337 15.8538C7.72989 16.0003 7.8122 16.199 7.8122 16.4062V17.1875H8.59345C8.80065 17.1875 8.99936 17.2698 9.14587 17.4163C9.29239 17.5628 9.3747 17.7615 9.3747 17.9687V18.75H9.83251L19.9888 8.59374ZM4.7372 16.6797L4.57157 16.8453L2.18407 22.8156L8.15438 20.4281L8.32001 20.2625C8.17098 20.2068 8.0425 20.107 7.95175 19.9763C7.86101 19.8456 7.81232 19.6903 7.8122 19.5312V18.75H7.03095C6.82375 18.75 6.62503 18.6677 6.47852 18.5212C6.33201 18.3747 6.2497 18.1759 6.2497 17.9687V17.1875H5.46845C5.30935 17.1874 5.15409 17.1387 5.02341 17.0479C4.89274 16.9572 4.79288 16.8287 4.7372 16.6797Z" fill="black"/>
</g>
<defs>
<clipPath id="clip0_36_241">
<rect width="25" height="25" fill="white"/>
</clipPath>
</defs>
</svg>
