<svg width="30" height="30" viewBox="0 0 30 30" fill="none" xmlns="http://www.w3.org/2000/svg">
<g clip-path="url(#clip0_36_187)">
<path d="M22.0165 19.395C23.832 16.9175 24.6452 13.8459 24.2933 10.7947C23.9414 7.7434 22.4504 4.93752 20.1185 2.93837C17.7867 0.939232 14.786 -0.105738 11.7168 0.0125242C8.64757 0.130786 5.73619 1.40356 3.5651 3.57621C1.394 5.74885 0.123313 8.66115 0.00724741 11.7304C-0.108819 14.7997 0.938298 17.7997 2.93911 20.1301C4.93992 22.4605 7.74686 23.9495 10.7984 24.2992C13.8499 24.6489 16.9209 23.8336 19.3971 22.0163H19.3952C19.4502 22.0913 19.5115 22.1631 19.579 22.2319L26.7977 29.4506C27.1493 29.8025 27.6262 30.0002 28.1236 30.0004C28.621 30.0006 29.0981 29.8031 29.4499 29.4516C29.8017 29.1 29.9995 28.623 29.9997 28.1257C29.9998 27.6283 29.8024 27.1512 29.4508 26.7994L22.2321 19.5806C22.1651 19.5127 22.093 19.4519 22.0165 19.395ZM22.5002 12.1875C22.5002 13.5418 22.2335 14.8828 21.7152 16.1339C21.197 17.3851 20.4374 18.5219 19.4798 19.4795C18.5222 20.4371 17.3853 21.1968 16.1341 21.715C14.883 22.2333 13.542 22.5 12.1877 22.5C10.8335 22.5 9.49247 22.2333 8.2413 21.715C6.99013 21.1968 5.85328 20.4371 4.89568 19.4795C3.93808 18.5219 3.17846 17.3851 2.66021 16.1339C2.14196 14.8828 1.87522 13.5418 1.87522 12.1875C1.87522 9.45246 2.96171 6.82944 4.89568 4.89547C6.82965 2.9615 9.45267 1.87501 12.1877 1.87501C14.9228 1.87501 17.5458 2.9615 19.4798 4.89547C21.4137 6.82944 22.5002 9.45246 22.5002 12.1875Z" fill="black" fill-opacity="0.51"/>
</g>
<defs>
<clipPath id="clip0_36_187">
<rect width="30" height="30" fill="white"/>
</clipPath>
</defs>
</svg>
