<svg width="33" height="30" viewBox="0 0 33 30" fill="none" xmlns="http://www.w3.org/2000/svg">
<path d="M11.0096 2.98125C9.04519 3.4731 7.09418 4.00825 5.15832 4.58625C4.98142 4.63811 4.82415 4.7342 4.70452 4.86352C4.58488 4.99284 4.5077 5.15017 4.48182 5.3175C3.3392 13.1119 5.9792 18.7987 9.12864 22.545C10.4615 24.1475 12.0515 25.5588 13.8456 26.7319C14.5592 27.1894 15.1903 27.5194 15.6874 27.7313C15.9349 27.8375 16.1363 27.9112 16.2917 27.9525C16.3602 27.9714 16.4297 27.987 16.5 27.9994C16.5696 27.987 16.6384 27.9713 16.7063 27.9525C16.863 27.91 17.0651 27.8363 17.3126 27.7313C17.8076 27.5194 18.4408 27.1875 19.1544 26.7319C20.9485 25.5588 22.5385 24.1475 23.8714 22.545C27.0208 18.8006 29.6608 13.1119 28.5182 5.3175C28.4923 5.15017 28.4151 4.99284 28.2955 4.86352C28.1759 4.7342 28.0186 4.63811 27.8417 4.58625C26.499 4.18688 24.2323 3.53625 21.9904 2.98312C19.701 2.41875 17.5952 2.00063 16.5 2.00063C15.4069 2.00063 13.299 2.41688 11.0096 2.98125ZM10.461 1.05C12.6988 0.496875 15.0769 0 16.5 0C17.9231 0 20.3012 0.496875 22.539 1.05C24.8284 1.6125 27.1363 2.27812 28.4934 2.68125C29.0609 2.8516 29.5639 3.164 29.9448 3.58256C30.3257 4.00113 30.569 4.50889 30.6467 5.0475C31.8759 13.4419 29.0235 19.6631 25.5626 23.7787C24.0945 25.5389 22.3446 27.0892 20.3713 28.3781C19.6897 28.8252 18.9665 29.2173 18.2098 29.55C17.6323 29.7975 17.0115 30 16.5 30C15.9885 30 15.3698 29.7975 14.7902 29.55C14.0335 29.2173 13.3103 28.8252 12.6287 28.3781C10.6554 27.0892 8.90556 25.5389 7.43739 23.7787C3.97651 19.6631 1.12407 13.4419 2.35332 5.0475C2.43105 4.50889 2.67434 4.00113 3.05523 3.58256C3.43612 3.164 3.93916 2.8516 4.50657 2.68125C6.47679 2.09439 8.46217 1.55049 10.461 1.05Z" fill="#4224FF"/>
<path d="M22.3865 9.64875C22.4825 9.73583 22.5587 9.83929 22.6107 9.95318C22.6627 10.0671 22.6894 10.1892 22.6894 10.3125C22.6894 10.4358 22.6627 10.5579 22.6107 10.6718C22.5587 10.7857 22.4825 10.8892 22.3865 10.9762L16.199 16.6012C16.1032 16.6886 15.9894 16.7578 15.8641 16.8051C15.7388 16.8523 15.6045 16.8767 15.4688 16.8767C15.3332 16.8767 15.1989 16.8523 15.0736 16.8051C14.9483 16.7578 14.8345 16.6886 14.7387 16.6012L11.645 13.7887C11.5491 13.7016 11.473 13.5981 11.4211 13.4842C11.3692 13.3703 11.3425 13.2483 11.3425 13.125C11.3425 13.0017 11.3692 12.8797 11.4211 12.7658C11.473 12.6519 11.5491 12.5484 11.645 12.4612C11.7408 12.3741 11.8547 12.3049 11.9799 12.2578C12.1052 12.2106 12.2395 12.1863 12.3751 12.1863C12.5107 12.1863 12.6449 12.2106 12.7702 12.2578C12.8955 12.3049 13.0093 12.3741 13.1052 12.4612L15.4688 14.6119L20.9262 9.64875C21.022 9.56144 21.1358 9.49217 21.2611 9.44491C21.3864 9.39765 21.5207 9.37332 21.6563 9.37332C21.792 9.37332 21.9263 9.39765 22.0516 9.44491C22.1769 9.49217 22.2907 9.56144 22.3865 9.64875Z" fill="#4224FF"/>
</svg>
