<svg width="33" height="34" viewBox="0 0 33 34" fill="none" xmlns="http://www.w3.org/2000/svg">
<g clip-path="url(#clip0_31_255)">
<path d="M8.6665 10.3454V12.253H10.6593V10.3454H8.6665ZM22.6158 10.3454V12.253H24.6085V10.3454H22.6158ZM8.6665 14.1606V16.0683H10.6593V14.1606H8.6665ZM22.6158 14.1606V16.0683H24.6085V14.1606H22.6158ZM8.6665 17.9759V19.8835H10.6593V17.9759H8.6665ZM22.6158 17.9759V19.8835H24.6085V17.9759H22.6158ZM8.6665 21.7911V23.6987H10.6593V21.7911H8.6665ZM22.6158 21.7911V23.6987H24.6085V21.7911H22.6158Z" fill="#4224FF"/>
<path d="M3.68469 6.42416C2.89192 6.42416 2.13162 6.75913 1.57105 7.35538C1.01048 7.95163 0.695557 8.76031 0.695557 9.60353L0.695557 12.7829C0.695557 13.064 0.800532 13.3335 0.987389 13.5323C1.17425 13.731 1.42768 13.8427 1.69193 13.8427C2.4847 13.8427 3.245 14.1777 3.80557 14.7739C4.36614 15.3702 4.68106 16.1788 4.68106 17.0221C4.68106 17.8653 4.36614 18.674 3.80557 19.2702C3.245 19.8665 2.4847 20.2014 1.69193 20.2014C1.42768 20.2014 1.17425 20.3131 0.987389 20.5118C0.800532 20.7106 0.695557 20.9801 0.695557 21.2612L0.695557 24.4406C0.695557 25.2838 1.01048 26.0925 1.57105 26.6887C2.13162 27.285 2.89192 27.6199 3.68469 27.6199H29.5905C30.3833 27.6199 31.1436 27.285 31.7041 26.6887C32.2647 26.0925 32.5796 25.2838 32.5796 24.4406V21.2612C32.5796 20.9801 32.4746 20.7106 32.2878 20.5118C32.1009 20.3131 31.8475 20.2014 31.5832 20.2014C30.7905 20.2014 30.0302 19.8665 29.4696 19.2702C28.909 18.674 28.5941 17.8653 28.5941 17.0221C28.5941 16.1788 28.909 15.3702 29.4696 14.7739C30.0302 14.1777 30.7905 13.8427 31.5832 13.8427C31.8475 13.8427 32.1009 13.731 32.2878 13.5323C32.4746 13.3335 32.5796 13.064 32.5796 12.7829V9.60353C32.5796 8.76031 32.2647 7.95163 31.7041 7.35538C31.1436 6.75913 30.3833 6.42416 29.5905 6.42416H3.68469ZM2.68831 9.60353C2.68831 9.32246 2.79329 9.0529 2.98014 8.85415C3.167 8.6554 3.42043 8.54374 3.68469 8.54374H29.5905C29.8547 8.54374 30.1082 8.6554 30.295 8.85415C30.4819 9.0529 30.5869 9.32246 30.5869 9.60353V11.8291C29.4607 12.0723 28.4482 12.7222 27.7209 13.6686C26.9936 14.615 26.5964 15.7997 26.5964 17.0221C26.5964 18.2444 26.9936 19.4291 27.7209 20.3755C28.4482 21.3219 29.4607 21.9718 30.5869 22.215V24.4406C30.5869 24.7217 30.4819 24.9912 30.295 25.19C30.1082 25.3887 29.8547 25.5004 29.5905 25.5004H3.68469C3.42043 25.5004 3.167 25.3887 2.98014 25.19C2.79329 24.9912 2.68831 24.7217 2.68831 24.4406V22.215C3.8145 21.9718 4.82701 21.3219 5.55427 20.3755C6.28153 19.4291 6.67881 18.2444 6.67881 17.0221C6.67881 15.7997 6.28153 14.615 5.55427 13.6686C4.82701 12.7222 3.8145 12.0723 2.68831 11.8291V9.60353Z" fill="#4224FF"/>
</g>
<defs>
<clipPath id="clip0_31_255">
<rect width="31.8841" height="33.9133" fill="white" transform="translate(0.695557 0.0654297)"/>
</clipPath>
</defs>
</svg>
